<svg xmlns="http://www.w3.org/2000/svg">
    <symbol viewBox="0 -0.5 25 25" id="home">
        <path fill-rule="evenodd" clip-rule="evenodd" d="M18.867 15.8321L18.873 10.0391L14.75 5.92908C13.5057 4.69031 11.4942 4.69031 10.25 5.92908L6.13599 10.0291V15.8291C6.1393 17.5833 7.56377 19.0028 9.31799 19.0001H15.685C17.438 19.0029 18.862 17.5851 18.867 15.8321Z" stroke="#000000" stroke-width="1.5" stroke-linecap="round" stroke-linejoin="round"/>
        <path fill-rule="evenodd" clip-rule="evenodd" d="M14 11.365C13.9846 12.1896 13.3064 12.8471 12.4817 12.8369C11.657 12.8267 10.9952 12.1526 11.0003 11.3279C11.0053 10.5031 11.6752 9.83718 12.5 9.83704C12.9015 9.84073 13.2852 10.0038 13.5665 10.2904C13.8478 10.5769 14.0037 10.9635 14 11.365V11.365Z" stroke="#000000" stroke-width="1.5" stroke-linecap="round" stroke-linejoin="round"/>
        <path d="M19.63 5.76314C19.6306 5.34892 19.2953 5.01267 18.8811 5.01209C18.4668 5.0115 18.1306 5.34682 18.13 5.76103L19.63 5.76314ZM18.874 10.0391L18.124 10.038C18.1237 10.2377 18.2031 10.4293 18.3445 10.5702L18.874 10.0391ZM19.9705 12.1912C20.2638 12.4837 20.7387 12.4829 21.0311 12.1896C21.3236 11.8963 21.3229 11.4214 21.0295 11.1289L19.9705 12.1912ZM6.66552 10.5602C6.95886 10.2678 6.95959 9.79291 6.66714 9.49957C6.3747 9.20623 5.89982 9.2055 5.60648 9.49794L6.66552 10.5602ZM3.97048 11.1289C3.67714 11.4214 3.67641 11.8963 3.96886 12.1896C4.2613 12.4829 4.73618 12.4837 5.02952 12.1912L3.97048 11.1289ZM10.5 15.1971C10.0858 15.1971 9.75 15.5329 9.75 15.9471C9.75 16.3613 10.0858 16.6971 10.5 16.6971V15.1971ZM14.5 16.6971C14.9142 16.6971 15.25 16.3613 15.25 15.9471C15.25 15.5329 14.9142 15.1971 14.5 15.1971V16.6971ZM18.13 5.76103L18.124 10.038L19.624 10.0401L19.63 5.76314L18.13 5.76103ZM18.3445 10.5702L19.9705 12.1912L21.0295 11.1289L19.4035 9.50794L18.3445 10.5702ZM5.60648 9.49794L3.97048 11.1289L5.02952 12.1912L6.66552 10.5602L5.60648 9.49794ZM10.5 16.6971H14.5V15.1971H10.5V16.6971Z"/>
    </symbol>

    <symbol viewBox="0 0 24 24" id="gallery">
        <path d="M22 13.4375C22 17.2087 22 19.0944 20.8284 20.2659C19.6569 21.4375 17.7712 21.4375 14 21.4375H10C6.22876 21.4375 4.34315 21.4375 3.17157 20.2659C2 19.0944 2 17.2087 2 13.4375C2 9.66626 2 7.78065 3.17157 6.60907C4.34315 5.4375 6.22876 5.4375 10 5.4375H14C17.7712 5.4375 19.6569 5.4375 20.8284 6.60907C21.4921 7.27271 21.7798 8.16545 21.9045 9.50024" stroke="#1C274C" stroke-width="1.5" stroke-linecap="round"/>
        <path d="M3.98779 6C4.10022 5.06898 4.33494 4.42559 4.82498 3.93726C5.76553 3 7.27932 3 10.3069 3H13.5181C16.5457 3 18.0595 3 19 3.93726C19.4901 4.42559 19.7248 5.06898 19.8372 6" stroke="#1C274C" stroke-width="1.5"/>
        <circle cx="17.5" cy="9.9375" r="1.5" stroke="#1C274C" stroke-width="1.5"/>
        <path d="M2 13.9376L3.75159 12.405C4.66286 11.6077 6.03628 11.6534 6.89249 12.5096L11.1822 16.7993C11.8694 17.4866 12.9512 17.5803 13.7464 17.0214L14.0446 16.8119C15.1888 16.0077 16.7369 16.1009 17.7765 17.0365L21 19.9376" stroke="#1C274C" stroke-width="1.5" stroke-linecap="round"/>
    </symbol>

    <symbol viewBox="0 0 24 24" id="d-arrow">
        <path d="M7 10L12 15L17 10" stroke="#000000" stroke-width="1.5" stroke-linecap="round" stroke-linejoin="round"/>
    </symbol>

    <symbol viewBox="0 0 1024 1024" id="l-arrow">
        <path d="M768 903.232l-50.432 56.768L256 512l461.568-448 50.432 56.768L364.928 512z"/>
    </symbol>

    <symbol viewBox="0 0 24 24" id="telegram">
    <path fill-rule="evenodd" clip-rule="evenodd" d="M23.1117 4.49449C23.4296 2.94472 21.9074 1.65683 20.4317 2.227L2.3425 9.21601C0.694517 9.85273 0.621087 12.1572 2.22518 12.8975L6.1645 14.7157L8.03849 21.2746C8.13583 21.6153 8.40618 21.8791 8.74917 21.968C9.09216 22.0568 9.45658 21.9576 9.70712 21.707L12.5938 18.8203L16.6375 21.8531C17.8113 22.7334 19.5019 22.0922 19.7967 20.6549L23.1117 4.49449ZM3.0633 11.0816L21.1525 4.0926L17.8375 20.2531L13.1 16.6999C12.7019 16.4013 12.1448 16.4409 11.7929 16.7928L10.5565 18.0292L10.928 15.9861L18.2071 8.70703C18.5614 8.35278 18.5988 7.79106 18.2947 7.39293C17.9906 6.99479 17.4389 6.88312 17.0039 7.13168L6.95124 12.876L3.0633 11.0816ZM8.17695 14.4791L8.78333 16.6015L9.01614 15.321C9.05253 15.1209 9.14908 14.9366 9.29291 14.7928L11.5128 12.573L8.17695 14.4791Z"/>
    </symbol>

    <symbol viewBox="0 0 24 24" id="instagram"> 
    <path fill-rule="evenodd" clip-rule="evenodd" d="M12 18C15.3137 18 18 15.3137 18 12C18 8.68629 15.3137 6 12 6C8.68629 6 6 8.68629 6 12C6 15.3137 8.68629 18 12 18ZM12 16C14.2091 16 16 14.2091 16 12C16 9.79086 14.2091 8 12 8C9.79086 8 8 9.79086 8 12C8 14.2091 9.79086 16 12 16Z"/>
    <path d="M18 5C17.4477 5 17 5.44772 17 6C17 6.55228 17.4477 7 18 7C18.5523 7 19 6.55228 19 6C19 5.44772 18.5523 5 18 5Z"/>
    <path fill-rule="evenodd" clip-rule="evenodd" d="M1.65396 4.27606C1 5.55953 1 7.23969 1 10.6V13.4C1 16.7603 1 18.4405 1.65396 19.7239C2.2292 20.8529 3.14708 21.7708 4.27606 22.346C5.55953 23 7.23969 23 10.6 23H13.4C16.7603 23 18.4405 23 19.7239 22.346C20.8529 21.7708 21.7708 20.8529 22.346 19.7239C23 18.4405 23 16.7603 23 13.4V10.6C23 7.23969 23 5.55953 22.346 4.27606C21.7708 3.14708 20.8529 2.2292 19.7239 1.65396C18.4405 1 16.7603 1 13.4 1H10.6C7.23969 1 5.55953 1 4.27606 1.65396C3.14708 2.2292 2.2292 3.14708 1.65396 4.27606ZM13.4 3H10.6C8.88684 3 7.72225 3.00156 6.82208 3.0751C5.94524 3.14674 5.49684 3.27659 5.18404 3.43597C4.43139 3.81947 3.81947 4.43139 3.43597 5.18404C3.27659 5.49684 3.14674 5.94524 3.0751 6.82208C3.00156 7.72225 3 8.88684 3 10.6V13.4C3 15.1132 3.00156 16.2777 3.0751 17.1779C3.14674 18.0548 3.27659 18.5032 3.43597 18.816C3.81947 19.5686 4.43139 20.1805 5.18404 20.564C5.49684 20.7234 5.94524 20.8533 6.82208 20.9249C7.72225 20.9984 8.88684 21 10.6 21H13.4C15.1132 21 16.2777 20.9984 17.1779 20.9249C18.0548 20.8533 18.5032 20.7234 18.816 20.564C19.5686 20.1805 20.1805 19.5686 20.564 18.816C20.7234 18.5032 20.8533 18.0548 20.9249 17.1779C20.9984 16.2777 21 15.1132 21 13.4V10.6C21 8.88684 20.9984 7.72225 20.9249 6.82208C20.8533 5.94524 20.7234 5.49684 20.564 5.18404C20.1805 4.43139 19.5686 3.81947 18.816 3.43597C18.5032 3.27659 18.0548 3.14674 17.1779 3.0751C16.2777 3.00156 15.1132 3 13.4 3Z"/>
    </symbol>

    <symbol viewBox="0 0 24 24" id="facebook">
    <path fill-rule="evenodd" clip-rule="evenodd" d="M20 1C21.6569 1 23 2.34315 23 4V20C23 21.6569 21.6569 23 20 23H4C2.34315 23 1 21.6569 1 20V4C1 2.34315 2.34315 1 4 1H20ZM20 3C20.5523 3 21 3.44772 21 4V20C21 20.5523 20.5523 21 20 21H15V13.9999H17.0762C17.5066 13.9999 17.8887 13.7245 18.0249 13.3161L18.4679 11.9871C18.6298 11.5014 18.2683 10.9999 17.7564 10.9999H15V8.99992C15 8.49992 15.5 7.99992 16 7.99992H18C18.5523 7.99992 19 7.5522 19 6.99992V6.31393C19 5.99091 18.7937 5.7013 18.4813 5.61887C17.1705 5.27295 16 5.27295 16 5.27295C13.5 5.27295 12 6.99992 12 8.49992V10.9999H10C9.44772 10.9999 9 11.4476 9 11.9999V12.9999C9 13.5522 9.44771 13.9999 10 13.9999H12V21H4C3.44772 21 3 20.5523 3 20V4C3 3.44772 3.44772 3 4 3H20Z"/>
    </symbol>

    <symbol viewBox="0 0 24 24" id="snapchat"> 
    <path fill-rule="evenodd" clip-rule="evenodd" d="M7.24759 4.07011C8.42981 2.66637 10.1045 2 12 2C13.9392 2 15.604 2.78414 16.7639 4.21322C17.7942 5.48259 18.3772 7.1971 18.4826 9.1902C18.5118 9.19446 18.5425 9.19891 18.5749 9.20362L18.5955 9.20661C18.7648 9.23117 18.9679 9.26103 19.179 9.3019C19.9604 9.45323 21.2931 9.83505 21.7522 11.2659C21.9827 11.9846 21.8669 12.6509 21.4644 13.1786C21.1168 13.6343 20.6205 13.897 20.2664 14.0565C20.0896 14.1362 19.9144 14.2043 19.7668 14.2605C20.1122 15.1966 20.7141 16.1598 21.3801 17.0322C22.0073 17.8538 21.8414 18.8955 21.5172 19.574C21.1925 20.2537 20.4899 21.031 19.4684 21.0753C18.8903 21.1004 18.2833 21.1596 17.6791 21.2695C17.4062 21.3192 17.0841 21.4286 16.6839 21.5939C16.4453 21.6925 16.2264 21.79 15.9902 21.8953C15.8025 21.9789 15.6038 22.0674 15.3754 22.1653C14.4345 22.5685 13.2798 23 12 23C10.7201 23 9.56542 22.5685 8.62452 22.1653C8.39619 22.0674 8.19749 21.9789 8.00977 21.8953C7.7735 21.79 7.55463 21.6925 7.31601 21.5939C6.91585 21.4286 6.5938 21.3192 6.32087 21.2695C5.71667 21.1596 5.10964 21.1004 4.53154 21.0753C3.51004 21.031 2.8074 20.2537 2.48273 19.574C2.15858 18.8955 1.99263 17.8538 2.61986 17.0322C3.29007 16.1543 3.89533 15.1844 4.23963 14.2428C4.10623 14.1891 3.94976 14.1248 3.79112 14.0506C3.4447 13.8885 2.97483 13.6299 2.62849 13.1959C2.24058 12.7098 2.07004 12.083 2.22151 11.365C2.54568 9.82833 3.99142 9.44433 4.75598 9.30082C4.97305 9.26008 5.18352 9.23035 5.36087 9.20574C5.37272 9.2041 5.38436 9.20248 5.39582 9.2009C5.43821 9.19502 5.47796 9.18951 5.51542 9.18424C5.61483 7.05895 6.19378 5.32139 7.24759 4.07011ZM8.77735 5.35846C8.01533 6.26327 7.49997 7.71867 7.49997 9.85714V9.96228L7.4781 10.0651C7.36668 10.5892 6.96437 10.8336 6.76444 10.9277C6.55376 11.0269 6.32735 11.0761 6.16722 11.1058C6.01123 11.1348 5.83742 11.1589 5.68179 11.1804C5.66625 11.1825 5.65088 11.1847 5.63573 11.1868C5.45838 11.2114 5.29025 11.2355 5.12494 11.2665C4.35999 11.4101 4.2159 11.6002 4.17844 11.7778C4.15178 11.9042 4.1748 11.9296 4.18806 11.9442C4.1894 11.9457 4.19065 11.947 4.19173 11.9484C4.24504 12.0152 4.37304 12.1147 4.63867 12.239C4.76311 12.2972 4.89394 12.3505 5.03949 12.4087C5.05104 12.4134 5.06285 12.4181 5.07488 12.4229C5.2016 12.4736 5.35282 12.534 5.48646 12.5966C5.6173 12.6579 5.83672 12.7677 6.02161 12.9451C6.23755 13.1522 6.49946 13.5565 6.3728 14.0887C6.00824 15.6205 5.08855 17.0942 4.21053 18.2445C4.20735 18.2504 4.19426 18.2799 4.19451 18.3496C4.19485 18.445 4.222 18.5751 4.28737 18.7119C4.35267 18.8486 4.43795 18.954 4.51509 19.0173C4.57857 19.0694 4.61441 19.0766 4.61911 19.0773C5.27019 19.1055 5.96946 19.1727 6.67907 19.3019C7.16246 19.3899 7.6398 19.5637 8.07989 19.7456C8.32241 19.8458 8.60112 19.9695 8.87176 20.0896C9.06094 20.1735 9.24618 20.2558 9.41237 20.327C10.3108 20.712 11.1498 21 12 21C12.8502 21 13.6891 20.712 14.5876 20.327C14.7538 20.2558 14.939 20.1735 15.1282 20.0896C15.3988 19.9695 15.6775 19.8458 15.9201 19.7456C16.3601 19.5637 16.8375 19.3899 17.3209 19.3019C18.0305 19.1727 18.7298 19.1055 19.3808 19.0773C19.3856 19.0765 19.4214 19.0694 19.4849 19.0173C19.562 18.954 19.6473 18.8486 19.7126 18.7119C19.7779 18.5751 19.8051 18.445 19.8054 18.3496C19.8058 18.2566 19.7823 18.2353 19.7904 18.2458C18.9121 17.0954 17.9918 15.6211 17.6271 14.0887C17.4917 13.5198 17.8013 13.1083 18.0141 12.9192C18.2033 12.751 18.4261 12.6464 18.5614 12.5869C18.6956 12.5278 18.8479 12.4701 18.9782 12.4207C18.9947 12.4144 19.0108 12.4083 19.0265 12.4024C19.1787 12.3445 19.316 12.2911 19.4449 12.233C19.7142 12.1117 19.8296 12.0191 19.8693 11.9718C19.8679 11.9554 19.8631 11.9248 19.8478 11.8769C19.7569 11.5935 19.4997 11.4012 18.7987 11.2654C18.6392 11.2345 18.4784 11.2106 18.3084 11.1859C18.2957 11.184 18.2828 11.1822 18.2697 11.1803C18.1195 11.1586 17.9495 11.134 17.7967 11.104C17.6419 11.0737 17.418 11.0226 17.2083 10.9183C16.9978 10.8136 16.628 10.5646 16.5218 10.0651L16.5 9.96228V9.85714C16.5 7.90789 15.9926 6.43652 15.211 5.47359C14.4459 4.53088 13.3608 4 12 4C10.5955 4 9.52013 4.47649 8.77735 5.35846Z"/>
    </symbol>
</svg>